<svg xmlns="http://www.w3.org/2000/svg" aria-hidden="true" style="position:absolute;width:0;height:0;overflow:hidden">
 <defs>
     <symbol id="icon-calendar" viewBox="0 0 32 32">
         <path d="M7 0c0.552 0 1 0.448 1 1v0 1h16v-1c0-0.552 0.448-1 1-1s1 0.448 1 1v0 1h2c2.209 0 4 1.791 4 4v0 22c0 2.209-1.791 4-4 4v0h-24c-2.209 0-4-1.791-4-4v0-22c0-2.209 1.791-4 4-4v0h2v-1c0-0.552 0.448-1 1-1v0zM4 4c-1.105 0-2 0.895-2 2v0 22c0 1.105 0.895 2 2 2v0h24c1.105 0 2-0.895 2-2v0-22c0-1.105-0.895-2-2-2v0h-24z"></path>
         <path d="M5 8c0-0.552 0.448-1 1-1v0h20c0.552 0 1 0.448 1 1v0 2c0 0.552-0.448 1-1 1v0h-20c-0.552 0-1-0.448-1-1v0-2zM22 15c0-0.552 0.448-1 1-1v0h2c0.552 0 1 0.448 1 1v0 2c0 0.552-0.448 1-1 1v0h-2c-0.552 0-1-0.448-1-1v0-2zM16 15c0-0.552 0.448-1 1-1v0h2c0.552 0 1 0.448 1 1v0 2c0 0.552-0.448 1-1 1v0h-2c-0.552 0-1-0.448-1-1v0-2zM6 21c0-0.552 0.448-1 1-1v0h2c0.552 0 1 0.448 1 1v0 2c0 0.552-0.448 1-1 1v0h-2c-0.552 0-1-0.448-1-1v0-2zM12 21c0-0.552 0.448-1 1-1v0h2c0.552 0 1 0.448 1 1v0 2c0 0.552-0.448 1-1 1v0h-2c-0.552 0-1-0.448-1-1v0-2z"></path>
     </symbol>

     <symbol id="icon-car" viewBox="0 0 32 32">
         <path d="M8 18c0 1.105-0.895 2-2 2s-2-0.895-2-2v0c0-1.105 0.895-2 2-2s2 0.895 2 2v0zM28 18c0 1.105-0.895 2-2 2s-2-0.895-2-2v0c0-1.105 0.895-2 2-2s2 0.895 2 2v0zM12 16c-1.105 0-2 0.895-2 2s0.895 2 2 2v0h8c1.105 0 2-0.895 2-2s-0.895-2-2-2v0h-8zM9.724 8.552l-1.912 3.828c-0.064 0.13-0.102 0.283-0.102 0.445 0 0.563 0.457 1.020 1.020 1.020 0.027 0 0.053-0.001 0.080-0.003l-0.003 0c1.82-0.146 4.7-0.34 7.194-0.34s5.376 0.194 7.194 0.34c0.023 0.002 0.049 0.003 0.076 0.003 0.563 0 1.020-0.457 1.020-1.020 0-0.162-0.038-0.315-0.105-0.451l0.003 0.006-1.912-3.826c-0.167-0.331-0.505-0.554-0.894-0.554h-10.764c-0.389 0-0.726 0.222-0.891 0.546l-0.003 0.006z"></path>
         <path d="M5.040 7.030c0.785-1.797 2.546-3.030 4.596-3.030 0.002 0 0.003 0 0.005 0h12.724c2 0 3.808 1.192 4.596 3.030l1.584 3.696c0.15 0.35 0.42 0.638 0.76 0.808 1 0.5 1.71 1.43 1.93 2.524l0.67 3.358c0.066 0.322 0.1 0.65 0.098 0.98v0.826c0 1.628-0.78 3.086-2 3.994v3.784c0 0.552-0.448 1-1 1v0h-4c-0.552 0-1-0.448-1-1v0-2.676c-2.584 0.096-5.49 0.176-8 0.176s-5.416-0.080-8-0.176v2.676c0 0.552-0.448 1-1 1v0h-4c-0.552 0-1-0.448-1-1v0-3.784c-1.22-0.908-2-2.366-2-3.994v-0.826c0-0.347 0.036-0.686 0.104-1.012l-0.006 0.032 0.67-3.36c0.22-1.092 0.93-2.024 1.928-2.522 0.342-0.172 0.609-0.454 0.758-0.798l0.004-0.010 1.584-3.696h-0.004zM9.64 6c-1.23 0-2.288 0.741-2.75 1.801l-0.008 0.019-1.584 3.694c-0.344 0.792-0.94 1.421-1.685 1.799l-0.021 0.009c-0.441 0.222-0.761 0.63-0.858 1.118l-0.002 0.010-0.672 3.358c-0.038 0.177-0.059 0.38-0.060 0.587v0.826c0 1.592 1.24 2.896 2.816 2.968 3.11 0.14 7.572 0.31 11.184 0.31s8.074-0.168 11.184-0.31c1.572-0.079 2.816-1.372 2.816-2.956 0-0.004 0-0.008-0-0.012v0.001-0.826c0-0.198-0.020-0.394-0.060-0.588l-0.67-3.36c-0.1-0.497-0.419-0.904-0.851-1.122l-0.009-0.004c-0.766-0.387-1.362-1.016-1.697-1.785l-0.009-0.023-1.584-3.696c-0.471-1.078-1.528-1.818-2.757-1.818-0.001 0-0.002 0-0.003 0h-12.72z"></path>
     </symbol>і

     <symbol id="icon-check-circle" viewBox="0 0 32 32">
         <path d="M16 30c-7.732 0-14-6.268-14-14s6.268-14 14-14v0c7.732 0 14 6.268 14 14s-6.268 14-14 14v0zM16 32c8.837 0 16.001-7.164 16.001-16.001s-7.164-16.001-16.001-16.001v0c-8.837 0-16.001 7.164-16.001 16.001s7.164 16.001 16.001 16.001v0z"></path>
         <path d="M21.94 9.94l-0.040 0.044-6.946 8.85-4.186-4.188c-0.267-0.249-0.627-0.403-1.023-0.403-0.828 0-1.5 0.672-1.5 1.5 0 0.396 0.153 0.755 0.403 1.023l-0.001-0.001 5.292 5.294c0.271 0.271 0.646 0.438 1.060 0.438 0.433 0 0.824-0.184 1.097-0.477l0.001-0.001 7.984-9.98c0.256-0.269 0.414-0.633 0.414-1.035 0-0.828-0.672-1.5-1.5-1.5-0.412 0-0.785 0.166-1.056 0.435l0-0z"></path>
     </symbol>

     <symbol id="icon-fuel-pump" viewBox="0 0 32 32">
         <path d="M6 5c0-0.552 0.448-1 1-1v0h10c0.552 0 1 0.448 1 1v0 10c0 0.552-0.448 1-1 1v0h-10c-0.552 0-1-0.448-1-1v0-10z"></path>
         <path d="M2 4c0-2.209 1.791-4 4-4v0h12c2.209 0 4 1.791 4 4v0 16c2.209 0 4 1.791 4 4v0 1c0 0.552 0.448 1 1 1s1-0.448 1-1v0-9h-1c-0.552 0-1-0.448-1-1v0-6.25c0-0.552 0.448-1 1-1v0h2.99c-0.022-0.952-0.106-1.788-0.402-2.444-0.163-0.387-0.436-0.701-0.78-0.911l-0.008-0.005c-0.368-0.22-0.928-0.39-1.8-0.39-0.552 0-1-0.448-1-1s0.448-1 1-1v0c1.128-0.002 2.070 0.22 2.824 0.672 0.766 0.456 1.268 1.102 1.588 1.814 0.59 1.31 0.588 2.93 0.588 4.162v6.35c0 0.001 0 0.001 0 0.002 0 0.552-0.448 1-1 1 0 0 0 0 0 0h-1v9c0 1.657-1.343 3-3 3s-3-1.343-3-3v0-1c0-1.105-0.895-2-2-2v0 8h1c0.552 0 1 0.448 1 1s-0.448 1-1 1v0h-22c-0.552 0-1-0.448-1-1s0.448-1 1-1v0h1v-26zM20 4c0-1.105-0.895-2-2-2v0h-12c-1.105 0-2 0.895-2 2v0 26h16v-26z"></path>
     </symbol>

     <symbol id="icon-gear" viewBox="0 0 32 32">
         <path d="M16 9.508c-3.585 0-6.492 2.907-6.492 6.492s2.907 6.492 6.492 6.492v0c3.585 0 6.492-2.907 6.492-6.492s-2.907-6.492-6.492-6.492v0zM11.508 16c0-2.481 2.011-4.492 4.492-4.492s4.492 2.011 4.492 4.492v0c0 2.481-2.011 4.492-4.492 4.492s-4.492-2.011-4.492-4.492v0z"></path>
         <path d="M19.592 2.686c-1.054-3.58-6.13-3.58-7.184 0l-0.188 0.638c-0.22 0.73-0.886 1.253-1.675 1.253-0.306 0-0.594-0.079-0.844-0.217l0.009 0.005-0.584-0.32c-3.28-1.784-6.866 1.804-5.080 5.082l0.318 0.584c0.134 0.241 0.213 0.529 0.213 0.835 0 0.788-0.523 1.455-1.24 1.672l-0.012 0.003-0.638 0.188c-3.58 1.054-3.58 6.13 0 7.184l0.638 0.188c0.73 0.22 1.253 0.886 1.253 1.675 0 0.306-0.079 0.594-0.217 0.844l0.005-0.009-0.32 0.584c-1.784 3.28 1.802 6.868 5.082 5.080l0.584-0.318c0.241-0.134 0.529-0.213 0.835-0.213 0.788 0 1.455 0.523 1.672 1.24l0.003 0.012 0.188 0.638c1.054 3.58 6.13 3.58 7.184 0l0.188-0.638c0.22-0.73 0.886-1.253 1.675-1.253 0.306 0 0.594 0.079 0.844 0.217l-0.009-0.005 0.584 0.32c3.28 1.786 6.868-1.804 5.080-5.082l-0.318-0.584c-0.134-0.241-0.213-0.529-0.213-0.835 0-0.788 0.523-1.455 1.24-1.672l0.012-0.003 0.638-0.188c3.58-1.054 3.58-6.13 0-7.184l-0.638-0.188c-0.73-0.22-1.253-0.886-1.253-1.675 0-0.306 0.079-0.594 0.217-0.844l-0.005 0.009 0.32-0.584c1.786-3.28-1.804-6.866-5.082-5.080l-0.584 0.318c-0.241 0.134-0.529 0.213-0.835 0.213-0.788 0-1.455-0.523-1.672-1.24l-0.003-0.012-0.188-0.638zM14.326 3.252c0.492-1.67 2.856-1.67 3.348 0l0.188 0.638c0.472 1.566 1.902 2.687 3.593 2.687 0.657 0 1.275-0.169 1.812-0.467l-0.019 0.010 0.582-0.32c1.528-0.83 3.2 0.84 2.368 2.37l-0.318 0.584c-0.287 0.518-0.457 1.135-0.457 1.792 0 1.692 1.122 3.121 2.662 3.585l0.026 0.007 0.636 0.188c1.67 0.492 1.67 2.856 0 3.348l-0.638 0.188c-1.566 0.472-2.687 1.902-2.687 3.593 0 0.657 0.169 1.275 0.467 1.812l-0.010-0.019 0.32 0.582c0.83 1.528-0.84 3.2-2.37 2.368l-0.582-0.318c-0.518-0.288-1.136-0.458-1.794-0.458-1.692 0-3.122 1.122-3.586 2.663l-0.007 0.026-0.188 0.636c-0.492 1.67-2.856 1.67-3.348 0l-0.188-0.638c-0.473-1.566-1.902-2.686-3.593-2.686-0.657 0-1.274 0.169-1.81 0.466l0.019-0.010-0.584 0.32c-1.528 0.83-3.2-0.84-2.368-2.37l0.318-0.582c0.288-0.518 0.457-1.136 0.457-1.793 0-1.692-1.121-3.122-2.66-3.588l-0.027-0.007-0.638-0.188c-1.67-0.492-1.67-2.856 0-3.348l0.638-0.188c1.565-0.473 2.685-1.902 2.685-3.593 0-0.656-0.169-1.272-0.465-1.809l0.010 0.019-0.32-0.584c-0.83-1.528 0.84-3.2 2.37-2.368l0.584 0.318c0.517 0.287 1.134 0.456 1.791 0.456 1.691 0 3.12-1.12 3.586-2.659l0.007-0.027 0.188-0.638z"></path>
     </symbol>

     <symbol id="icon-Location" viewBox="0 0 32 32">
         <path d="M23.060 16.762c-0.98 1.992-2.312 3.976-3.674 5.756-1.373 1.775-2.727 3.346-4.158 4.843l0.022-0.023c-1.409-1.474-2.763-3.045-4.034-4.683l-0.102-0.137c-1.36-1.78-2.692-3.764-3.676-5.756-0.992-2.012-1.562-3.896-1.562-5.512 0-5.177 4.197-9.374 9.374-9.374s9.374 4.197 9.374 9.374v0c0 1.616-0.57 3.5-1.562 5.512zM15.252 30s11.25-10.66 11.25-18.75c0-6.213-5.037-11.25-11.25-11.25s-11.25 5.037-11.25 11.25v0c-0.002 8.088 11.248 18.75 11.248 18.75z"></path>
         <path d="M15.25 15c-2.071 0-3.75-1.679-3.75-3.75s1.679-3.75 3.75-3.75v0c2.071 0 3.75 1.679 3.75 3.75s-1.679 3.75-3.75 3.75v0zM15.25 16.876c3.107 0 5.626-2.519 5.626-5.626s-2.519-5.626-5.626-5.626v0c-3.107 0-5.626 2.519-5.626 5.626s2.519 5.626 5.626 5.626v0z"></path>
     </symbol>

     <symbol id="icon-arrow-up" viewBox="0 0 32 32">
         <path d="M14.294 8.294c0.181-0.181 0.431-0.294 0.708-0.294s0.527 0.112 0.708 0.294l12 12c0.181 0.181 0.293 0.431 0.293 0.708 0 0.553-0.448 1.001-1.001 1.001-0.276 0-0.527-0.112-0.708-0.293v0l-11.294-11.294-11.292 11.294c-0.181 0.181-0.431 0.293-0.708 0.293-0.553 0-1.001-0.448-1.001-1.001 0-0.276 0.112-0.527 0.293-0.708l12-12z"></path>
     </symbol>

     <symbol id="icon-down-arrow" viewBox="0 0 32 32">
         <path d="M2.294 8.294c0.181-0.181 0.431-0.294 0.708-0.294s0.527 0.112 0.708 0.294l11.29 11.294 11.292-11.294c0.178-0.165 0.418-0.267 0.681-0.267 0.553 0 1.002 0.449 1.002 1.002 0 0.263-0.101 0.503-0.267 0.681l0.001-0.001-12 12c-0.181 0.181-0.431 0.294-0.708 0.294s-0.527-0.112-0.708-0.294l-12-12c-0.181-0.181-0.294-0.431-0.294-0.708s0.112-0.527 0.294-0.708l0-0z"></path>
     </symbol>

     <symbol id="icon-like" viewBox="0 0 32 32">
         <path d="M16 5.496l-1.434-1.474c-3.366-3.46-9.54-2.266-11.766 2.084-1.046 2.046-1.282 5 0.628 8.77 1.84 3.63 5.668 7.978 12.572 12.714 6.904-4.736 10.73-9.084 12.572-12.714 1.91-3.772 1.676-6.724 0.628-8.77-2.228-4.35-8.4-5.546-11.766-2.086l-1.434 1.476zM16 30c-30.666-20.264-9.442-36.080-0.352-27.714 0.12 0.11 0.238 0.224 0.352 0.342 0.112-0.118 0.227-0.229 0.346-0.335l0.006-0.005c9.088-8.372 30.314 7.446-0.352 27.712z"></path>
     </symbol>

     <symbol id="icon-like-blue" viewBox="0 0 34 32">
         <path d="M17.066 2.803c9.468-9.732 33.139 7.298 0 29.197-33.139-21.897-9.468-38.929 0-29.197z"></path>
     </symbol>
 </defs>
</svg>

